<?xml version="1.0" encoding="UTF-8"?>
<svg xmlns="http://www.w3.org/2000/svg" width="540" height="174"
     viewBox="0 0 540 174" data-symbol="breaker"
     font-family="Inter, system-ui, sans-serif" font-size="11">
  <title>breaker</title>
  <defs>
    <style>
      .badge-text { font-size: 9px; font-weight: 700; fill: white; }
      .label-text { font-size: 10px; font-weight: 600; fill: #1b2630; }
      .meta-text  { font-size: 9px; fill: #5a6675; }
    </style>
  </defs>
  <rect x="0" y="0" width="540" height="174" fill="#ffffff"/>
  <g id="component-set" data-component="breaker">
    <g id="state=normal" transform="translate(28 12)">
<g id="body">
  <rect x="6" y="20" width="80" height="56" rx="6" fill="#cdd5df" stroke="#3a4756" stroke-width="2"/>
</g>
<g id="state-fill">
  <rect x="10" y="24" width="72" height="10" fill="#2e7d32"/>
</g>
<g id="indicator">
  <line x1="20" y1="60" x2="74" y2="42"
        stroke="#3a4756" stroke-width="3"/>
  <line x1="20" y1="60" x2="74" y2="60"
        stroke="#3a4756" stroke-width="3"/>
  <circle cx="20" cy="60" r="3" fill="#3a4756"/>
  <circle cx="74" cy="42" r="3" fill="#3a4756"/>
</g>
<g id="state-badge" data-state="normal">
  <rect x="0" y="128" width="28" height="14" rx="3" fill="#2e7d32"/>
  <text x="14.0" y="138.5" text-anchor="middle" class="badge-text">OK</text>
</g>
<g id="label">
  <text x="50.0" y="158" text-anchor="middle" class="label-text">BREAKER</text>
  <text x="50.0" y="170" text-anchor="middle" class="meta-text">state = normal</text>
</g>
    </g>
    <g id="state=warning" transform="translate(156 12)">
      <g id="body">
        <rect x="6" y="20" width="80" height="56" rx="6" fill="#cdd5df" stroke="#3a4756" stroke-width="2"/>
      </g>
      <g id="state-fill">
        <rect x="10" y="24" width="72" height="10" fill="#ef6c00"/>
      </g>
      <g id="indicator">
        <line x1="20" y1="60" x2="74" y2="42"
              stroke="#3a4756" stroke-width="3"/>
        <line x1="20" y1="60" x2="74" y2="60"
              stroke="#3a4756" stroke-width="3"/>
        <circle cx="20" cy="60" r="3" fill="#3a4756"/>
        <circle cx="74" cy="42" r="3" fill="#3a4756"/>
      </g>
<g id="state-shape" data-state="warning">
  <polyline points="2,90 38.0,90 46.0,82 54.0,90 90,90"
           fill="none" stroke="#ef6c00" stroke-width="1.4"/>
</g>
<g id="state-badge" data-state="warning">
  <rect x="0" y="128" width="44" height="14" rx="3" fill="#ef6c00"/>
  <text x="22.0" y="138.5" text-anchor="middle" class="badge-text">WARN</text>
</g>
<g id="label">
  <text x="50.0" y="158" text-anchor="middle" class="label-text">BREAKER</text>
  <text x="50.0" y="170" text-anchor="middle" class="meta-text">state = warning</text>
</g>
    </g>
    <g id="state=alarm" transform="translate(284 12)">
      <g id="body">
        <rect x="6" y="20" width="80" height="56" rx="6" fill="#cdd5df" stroke="#3a4756" stroke-width="2"/>
      </g>
      <g id="state-fill">
        <rect x="10" y="24" width="72" height="10" fill="#c62828"/>
      </g>
      <g id="indicator">
        <line x1="20" y1="60" x2="74" y2="42"
              stroke="#3a4756" stroke-width="3"/>
        <line x1="20" y1="60" x2="74" y2="60"
              stroke="#3a4756" stroke-width="3"/>
        <circle cx="20" cy="60" r="3" fill="#3a4756"/>
        <circle cx="74" cy="42" r="3" fill="#3a4756"/>
      </g>
<g id="state-shape" data-state="alarm">
  <rect x="-2" y="2" width="96" height="84" rx="4"
        fill="none" stroke="#c62828" stroke-width="2.4"/>
  <polygon points="78,6 90,6 90,18"
           fill="#c62828"/>
  <text x="84" y="15" text-anchor="middle"
        fill="white" font-size="9" font-weight="700">!</text>
</g>
<g id="state-badge" data-state="alarm">
  <rect x="0" y="128" width="52" height="14" rx="3" fill="#c62828"/>
  <text x="26.0" y="138.5" text-anchor="middle" class="badge-text">ALARM</text>
</g>
<g id="label">
  <text x="50.0" y="158" text-anchor="middle" class="label-text">BREAKER</text>
  <text x="50.0" y="170" text-anchor="middle" class="meta-text">state = alarm</text>
</g>
    </g>
    <g id="state=closed" transform="translate(412 12)">
      <g id="body">
        <rect x="6" y="20" width="80" height="56" rx="6" fill="#cdd5df" stroke="#3a4756" stroke-width="2"/>
      </g>
      <g id="state-fill">
        <rect x="10" y="24" width="72" height="10" fill="#90a4ae"/>
      </g>
      <g id="indicator">
        <line x1="20" y1="60" x2="20" y2="60"
              stroke="#3a4756" stroke-width="3"/>
        <line x1="74" y1="60" x2="74" y2="60"
              stroke="#3a4756" stroke-width="3"/>
        <circle cx="20" cy="60" r="3" fill="#3a4756"/>
        <circle cx="74" cy="60" r="3" fill="#3a4756"/>
      </g>
<g id="state-shape" data-state="closed">
  <line x1="0" y1="4" x2="92" y2="84"
        stroke="#90a4ae" stroke-width="2"/>
  <line x1="92" y1="4" x2="0" y2="84"
        stroke="#90a4ae" stroke-width="2"/>
</g>
<g id="state-badge" data-state="closed">
  <rect x="0" y="128" width="60" height="14" rx="3" fill="#90a4ae"/>
  <text x="30.0" y="138.5" text-anchor="middle" class="badge-text">CLOSED</text>
</g>
<g id="label">
  <text x="50.0" y="158" text-anchor="middle" class="label-text">BREAKER</text>
  <text x="50.0" y="170" text-anchor="middle" class="meta-text">state = closed</text>
</g>
    </g>
  </g>
</svg>
