<?xml version="1.0" encoding="UTF-8"?>
<svg xmlns="http://www.w3.org/2000/svg" width="620" height="160"
     viewBox="0 0 620 160" data-symbol="heater"
     font-family="Inter, system-ui, sans-serif" font-size="11">
  <title>heater</title>
  <defs>
    <style>
      .badge-text { font-size: 9px; font-weight: 700; fill: white; }
      .label-text { font-size: 10px; font-weight: 600; fill: #1b2630; }
      .meta-text  { font-size: 9px; fill: #5a6675; }
    </style>
  </defs>
  <rect x="0" y="0" width="620" height="160" fill="#ffffff"/>
  <g id="component-set" data-component="heater">
    <g id="state=normal" transform="translate(28 12)">
<g id="body">
  <rect x="10" y="20" width="100" height="44" rx="6" fill="#cdd5df" stroke="#3a4756" stroke-width="2"/>
</g>
<g id="indicator">
  <path d="M22,52 q6,-12 12,0 t12,0 t12,0 t12,0 t12,0" fill="none" stroke="#c62828" stroke-width="2"/>
</g>
<g id="state-fill">
  <rect x="12" y="22" width="96" height="6" fill="#2e7d32"/>
</g>
<g id="state-badge" data-state="normal">
  <rect x="0" y="114" width="28" height="14" rx="3" fill="#2e7d32"/>
  <text x="14.0" y="124.5" text-anchor="middle" class="badge-text">OK</text>
</g>
<g id="label">
  <text x="60.0" y="144" text-anchor="middle" class="label-text">HEATER</text>
  <text x="60.0" y="156" text-anchor="middle" class="meta-text">state = normal</text>
</g>
    </g>
    <g id="state=warning" transform="translate(176 12)">
      <g id="body">
        <rect x="10" y="20" width="100" height="44" rx="6" fill="#cdd5df" stroke="#3a4756" stroke-width="2"/>
      </g>
      <g id="indicator">
        <path d="M22,52 q6,-12 12,0 t12,0 t12,0 t12,0 t12,0" fill="none" stroke="#c62828" stroke-width="2"/>
      </g>
      <g id="state-fill">
        <rect x="12" y="22" width="96" height="6" fill="#ef6c00"/>
      </g>
<g id="state-shape" data-state="warning">
  <polyline points="8,74 52.0,74 60.0,66 68.0,74 112,74"
           fill="none" stroke="#ef6c00" stroke-width="1.4"/>
</g>
<g id="state-badge" data-state="warning">
  <rect x="0" y="114" width="44" height="14" rx="3" fill="#ef6c00"/>
  <text x="22.0" y="124.5" text-anchor="middle" class="badge-text">WARN</text>
</g>
<g id="label">
  <text x="60.0" y="144" text-anchor="middle" class="label-text">HEATER</text>
  <text x="60.0" y="156" text-anchor="middle" class="meta-text">state = warning</text>
</g>
    </g>
    <g id="state=alarm" transform="translate(324 12)">
      <g id="body">
        <rect x="10" y="20" width="100" height="44" rx="6" fill="#cdd5df" stroke="#3a4756" stroke-width="2"/>
      </g>
      <g id="indicator">
        <path d="M22,52 q6,-12 12,0 t12,0 t12,0 t12,0 t12,0" fill="none" stroke="#c62828" stroke-width="2"/>
      </g>
      <g id="state-fill">
        <rect x="12" y="22" width="96" height="6" fill="#c62828"/>
      </g>
<g id="state-shape" data-state="alarm">
  <rect x="4" y="2" width="112" height="68" rx="4"
        fill="none" stroke="#c62828" stroke-width="2.4"/>
  <polygon points="100,6 112,6 112,18"
           fill="#c62828"/>
  <text x="106" y="15" text-anchor="middle"
        fill="white" font-size="9" font-weight="700">!</text>
</g>
<g id="state-badge" data-state="alarm">
  <rect x="0" y="114" width="52" height="14" rx="3" fill="#c62828"/>
  <text x="26.0" y="124.5" text-anchor="middle" class="badge-text">ALARM</text>
</g>
<g id="label">
  <text x="60.0" y="144" text-anchor="middle" class="label-text">HEATER</text>
  <text x="60.0" y="156" text-anchor="middle" class="meta-text">state = alarm</text>
</g>
    </g>
    <g id="state=closed" transform="translate(472 12)">
      <g id="body">
        <rect x="10" y="20" width="100" height="44" rx="6" fill="#cdd5df" stroke="#3a4756" stroke-width="2"/>
      </g>
      <g id="indicator">
        <path d="M22,52 q6,-12 12,0 t12,0 t12,0 t12,0 t12,0" fill="none" stroke="#c62828" stroke-width="2"/>
      </g>
      <g id="state-fill">
        <rect x="12" y="22" width="96" height="6" fill="#90a4ae"/>
      </g>
<g id="state-shape" data-state="closed">
  <line x1="6" y1="4" x2="114" y2="68"
        stroke="#90a4ae" stroke-width="2"/>
  <line x1="114" y1="4" x2="6" y2="68"
        stroke="#90a4ae" stroke-width="2"/>
</g>
<g id="state-badge" data-state="closed">
  <rect x="0" y="114" width="60" height="14" rx="3" fill="#90a4ae"/>
  <text x="30.0" y="124.5" text-anchor="middle" class="badge-text">CLOSED</text>
</g>
<g id="label">
  <text x="60.0" y="144" text-anchor="middle" class="label-text">HEATER</text>
  <text x="60.0" y="156" text-anchor="middle" class="meta-text">state = closed</text>
</g>
    </g>
  </g>
</svg>
