<?xml version="1.0" encoding="UTF-8"?>
<svg xmlns="http://www.w3.org/2000/svg" width="460" height="184"
     viewBox="0 0 460 184" data-symbol="pipe-elbow"
     font-family="Inter, system-ui, sans-serif" font-size="11">
  <title>pipe-elbow</title>
  <defs>
    <style>
      .badge-text { font-size: 9px; font-weight: 700; fill: white; }
      .label-text { font-size: 10px; font-weight: 600; fill: #1b2630; }
      .meta-text  { font-size: 9px; fill: #5a6675; }
    </style>
  </defs>
  <rect x="0" y="0" width="460" height="184" fill="#ffffff"/>
  <g id="component-set" data-component="pipe-elbow">
    <g id="state=normal" transform="translate(28 12)">
<g id="body">
  <path d="M0,30 L40,30 Q60,30 60,50 L60,90" fill="none" stroke="#2e7d32" stroke-width="14" opacity="0.75"/>
</g>
<g id="outline">
  <path d="M0,30 L40,30 Q60,30 60,50 L60,90" fill="none" stroke="#3a4756" stroke-width="2"/>
</g>
<g id="connector-left">
  <rect x="0" y="22" width="14" height="16" fill="#cdd5df" stroke="#3a4756"/>
</g>
<g id="connector-bottom">
  <rect x="52" y="78" width="16" height="14" fill="#cdd5df" stroke="#3a4756"/>
</g>
<g id="state-badge" data-state="normal">
  <rect x="0" y="138" width="28" height="14" rx="3" fill="#2e7d32"/>
  <text x="14.0" y="148.5" text-anchor="middle" class="badge-text">OK</text>
</g>
<g id="label">
  <text x="40.0" y="168" text-anchor="middle" class="label-text">PIPE-ELBOW</text>
  <text x="40.0" y="180" text-anchor="middle" class="meta-text">state = normal</text>
</g>
    </g>
    <g id="state=warning" transform="translate(136 12)">
      <g id="body">
        <path d="M0,30 L40,30 Q60,30 60,50 L60,90" fill="none" stroke="#ef6c00" stroke-width="14" opacity="0.75"/>
      </g>
      <g id="outline">
        <path d="M0,30 L40,30 Q60,30 60,50 L60,90" fill="none" stroke="#3a4756" stroke-width="2"/>
      </g>
      <g id="connector-left">
        <rect x="0" y="22" width="14" height="16" fill="#cdd5df" stroke="#3a4756"/>
      </g>
      <g id="connector-bottom">
        <rect x="52" y="78" width="16" height="14" fill="#cdd5df" stroke="#3a4756"/>
      </g>
<g id="state-shape" data-state="warning">
  <polyline points="6,106 32.0,106 40.0,98 48.0,106 74,106"
           fill="none" stroke="#ef6c00" stroke-width="1.4"/>
</g>
<g id="state-badge" data-state="warning">
  <rect x="0" y="138" width="44" height="14" rx="3" fill="#ef6c00"/>
  <text x="22.0" y="148.5" text-anchor="middle" class="badge-text">WARN</text>
</g>
<g id="label">
  <text x="40.0" y="168" text-anchor="middle" class="label-text">PIPE-ELBOW</text>
  <text x="40.0" y="180" text-anchor="middle" class="meta-text">state = warning</text>
</g>
    </g>
    <g id="state=alarm" transform="translate(244 12)">
      <g id="body">
        <path d="M0,30 L40,30 Q60,30 60,50 L60,90" fill="none" stroke="#c62828" stroke-width="14" opacity="0.75"/>
      </g>
      <g id="outline">
        <path d="M0,30 L40,30 Q60,30 60,50 L60,90" fill="none" stroke="#3a4756" stroke-width="2"/>
      </g>
      <g id="connector-left">
        <rect x="0" y="22" width="14" height="16" fill="#cdd5df" stroke="#3a4756"/>
      </g>
      <g id="connector-bottom">
        <rect x="52" y="78" width="16" height="14" fill="#cdd5df" stroke="#3a4756"/>
      </g>
<g id="state-shape" data-state="alarm">
  <rect x="2" y="2" width="76" height="100" rx="4"
        fill="none" stroke="#c62828" stroke-width="2.4"/>
  <polygon points="62,6 74,6 74,18"
           fill="#c62828"/>
  <text x="68" y="15" text-anchor="middle"
        fill="white" font-size="9" font-weight="700">!</text>
</g>
<g id="state-badge" data-state="alarm">
  <rect x="0" y="138" width="52" height="14" rx="3" fill="#c62828"/>
  <text x="26.0" y="148.5" text-anchor="middle" class="badge-text">ALARM</text>
</g>
<g id="label">
  <text x="40.0" y="168" text-anchor="middle" class="label-text">PIPE-ELBOW</text>
  <text x="40.0" y="180" text-anchor="middle" class="meta-text">state = alarm</text>
</g>
    </g>
    <g id="state=closed" transform="translate(352 12)">
      <g id="body">
        <path d="M0,30 L40,30 Q60,30 60,50 L60,90" fill="none" stroke="#90a4ae" stroke-width="14" opacity="0.75"/>
      </g>
      <g id="outline">
        <path d="M0,30 L40,30 Q60,30 60,50 L60,90" fill="none" stroke="#3a4756" stroke-width="2"/>
      </g>
      <g id="connector-left">
        <rect x="0" y="22" width="14" height="16" fill="#cdd5df" stroke="#3a4756"/>
      </g>
      <g id="connector-bottom">
        <rect x="52" y="78" width="16" height="14" fill="#cdd5df" stroke="#3a4756"/>
      </g>
<g id="state-shape" data-state="closed">
  <line x1="4" y1="4" x2="76" y2="100"
        stroke="#90a4ae" stroke-width="2"/>
  <line x1="76" y1="4" x2="4" y2="100"
        stroke="#90a4ae" stroke-width="2"/>
</g>
<g id="state-badge" data-state="closed">
  <rect x="0" y="138" width="60" height="14" rx="3" fill="#90a4ae"/>
  <text x="30.0" y="148.5" text-anchor="middle" class="badge-text">CLOSED</text>
</g>
<g id="label">
  <text x="40.0" y="168" text-anchor="middle" class="label-text">PIPE-ELBOW</text>
  <text x="40.0" y="180" text-anchor="middle" class="meta-text">state = closed</text>
</g>
    </g>
  </g>
</svg>
