<?xml version="1.0" encoding="UTF-8"?>
<svg xmlns="http://www.w3.org/2000/svg" width="620" height="188"
     viewBox="0 0 620 188" data-symbol="pump"
     font-family="Inter, system-ui, sans-serif" font-size="11">
  <title>pump</title>
  <defs>
    <style>
      .badge-text { font-size: 9px; font-weight: 700; fill: white; }
      .label-text { font-size: 10px; font-weight: 600; fill: #1b2630; }
      .meta-text  { font-size: 9px; fill: #5a6675; }
    </style>
  </defs>
  <rect x="0" y="0" width="620" height="188" fill="#ffffff"/>
  <g id="component-set" data-component="pump">
    <g id="state=normal" transform="translate(28 12)">
<g id="connector-left">
  <rect x="0" y="46" width="22" height="14" fill="#cdd5df" stroke="#3a4756"/>
</g>
<g id="connector-right">
  <rect x="98" y="46" width="22" height="14" fill="#cdd5df" stroke="#3a4756"/>
</g>
<g id="body">
  <circle cx="60" cy="52" r="34" fill="#cdd5df" stroke="#3a4756" stroke-width="2"/>
</g>
<g id="state-fill">
  <circle cx="60" cy="52" r="22" fill="#2e7d32" opacity="0.85"/>
</g>
<g id="indicator">
  <polygon points="60,32 78,52 60,72 42,52" fill="#cdd5df" stroke="#3a4756"/>
</g>
<g id="state-badge" data-state="normal">
  <rect x="0" y="142" width="28" height="14" rx="3" fill="#2e7d32"/>
  <text x="14.0" y="152.5" text-anchor="middle" class="badge-text">OK</text>
</g>
<g id="label">
  <text x="60.0" y="172" text-anchor="middle" class="label-text">PUMP</text>
  <text x="60.0" y="184" text-anchor="middle" class="meta-text">state = normal</text>
</g>
    </g>
    <g id="state=warning" transform="translate(176 12)">
      <g id="connector-left">
        <rect x="0" y="46" width="22" height="14" fill="#cdd5df" stroke="#3a4756"/>
      </g>
      <g id="connector-right">
        <rect x="98" y="46" width="22" height="14" fill="#cdd5df" stroke="#3a4756"/>
      </g>
      <g id="body">
        <circle cx="60" cy="52" r="34" fill="#cdd5df" stroke="#3a4756" stroke-width="2"/>
      </g>
      <g id="state-fill">
        <circle cx="60" cy="52" r="22" fill="#ef6c00" opacity="0.85"/>
      </g>
      <g id="indicator">
        <polygon points="60,32 78,52 60,72 42,52" fill="#cdd5df" stroke="#3a4756"/>
      </g>
<g id="state-shape" data-state="warning">
  <polyline points="14,106 52.0,106 60.0,98 68.0,106 106,106"
           fill="none" stroke="#ef6c00" stroke-width="1.4"/>
</g>
<g id="state-badge" data-state="warning">
  <rect x="0" y="142" width="44" height="14" rx="3" fill="#ef6c00"/>
  <text x="22.0" y="152.5" text-anchor="middle" class="badge-text">WARN</text>
</g>
<g id="label">
  <text x="60.0" y="172" text-anchor="middle" class="label-text">PUMP</text>
  <text x="60.0" y="184" text-anchor="middle" class="meta-text">state = warning</text>
</g>
    </g>
    <g id="state=alarm" transform="translate(324 12)">
      <g id="connector-left">
        <rect x="0" y="46" width="22" height="14" fill="#cdd5df" stroke="#3a4756"/>
      </g>
      <g id="connector-right">
        <rect x="98" y="46" width="22" height="14" fill="#cdd5df" stroke="#3a4756"/>
      </g>
      <g id="body">
        <circle cx="60" cy="52" r="34" fill="#cdd5df" stroke="#3a4756" stroke-width="2"/>
      </g>
      <g id="state-fill">
        <circle cx="60" cy="52" r="22" fill="#c62828" opacity="0.85"/>
      </g>
      <g id="indicator">
        <polygon points="60,32 78,52 60,72 42,52" fill="#cdd5df" stroke="#3a4756"/>
      </g>
<g id="state-shape" data-state="alarm">
  <rect x="10" y="2" width="100" height="100" rx="4"
        fill="none" stroke="#c62828" stroke-width="2.4"/>
  <polygon points="94,6 106,6 106,18"
           fill="#c62828"/>
  <text x="100" y="15" text-anchor="middle"
        fill="white" font-size="9" font-weight="700">!</text>
</g>
<g id="state-badge" data-state="alarm">
  <rect x="0" y="142" width="52" height="14" rx="3" fill="#c62828"/>
  <text x="26.0" y="152.5" text-anchor="middle" class="badge-text">ALARM</text>
</g>
<g id="label">
  <text x="60.0" y="172" text-anchor="middle" class="label-text">PUMP</text>
  <text x="60.0" y="184" text-anchor="middle" class="meta-text">state = alarm</text>
</g>
    </g>
    <g id="state=closed" transform="translate(472 12)">
      <g id="connector-left">
        <rect x="0" y="46" width="22" height="14" fill="#cdd5df" stroke="#3a4756"/>
      </g>
      <g id="connector-right">
        <rect x="98" y="46" width="22" height="14" fill="#cdd5df" stroke="#3a4756"/>
      </g>
      <g id="body">
        <circle cx="60" cy="52" r="34" fill="#cdd5df" stroke="#3a4756" stroke-width="2"/>
      </g>
      <g id="state-fill">
        <circle cx="60" cy="52" r="22" fill="#90a4ae" opacity="0.85"/>
      </g>
      <g id="indicator">
        <polygon points="60,32 78,52 60,72 42,52" fill="#cdd5df" stroke="#3a4756"/>
      </g>
<g id="state-shape" data-state="closed">
  <line x1="12" y1="4" x2="108" y2="100"
        stroke="#90a4ae" stroke-width="2"/>
  <line x1="108" y1="4" x2="12" y2="100"
        stroke="#90a4ae" stroke-width="2"/>
</g>
<g id="state-badge" data-state="closed">
  <rect x="0" y="142" width="60" height="14" rx="3" fill="#90a4ae"/>
  <text x="30.0" y="152.5" text-anchor="middle" class="badge-text">CLOSED</text>
</g>
<g id="label">
  <text x="60.0" y="172" text-anchor="middle" class="label-text">PUMP</text>
  <text x="60.0" y="184" text-anchor="middle" class="meta-text">state = closed</text>
</g>
    </g>
  </g>
</svg>
