<?xml version="1.0" encoding="UTF-8"?>
<svg xmlns="http://www.w3.org/2000/svg" width="1440" height="900"
     viewBox="0 0 1440 900" font-family="Inter, system-ui, sans-serif">
  <title>Equipment Status Dashboard</title>
  <defs>
    <style>
      .h1 { font-size: 18px; font-weight: 700; fill: #1b2630; }
      .h2 { font-size: 14px; font-weight: 700; fill: #1b2630; }
      .small { font-size: 11px; fill: #5a6675; }
      .meta  { font-size: 10px; fill: #5a6675; }
      .num   { font-size: 26px; font-weight: 700; fill: #1b2630; }
      .cell  { font-size: 12px; fill: #1b2630; }
      .badge-text { font-size: 10px; font-weight: 700; fill: white; }
      .header-title { font-size: 18px; font-weight: 700; fill: #ffffff; }
      .header-meta  { font-size: 11px; fill: #c8d3e2; }
      .button-text  { font-size: 11px; font-weight: 600; fill: #1b2630; }
    </style>
  </defs>
  <rect x="0" y="0" width="1440" height="900" fill="#f3f5f8"/>
<g id="layout-guide" opacity="0.6"><line x1="24.0" y1="80" x2="24.0" y2="860" stroke="#dde3ea" stroke-dasharray="2 4" stroke-width="0.6"/><line x1="140.0" y1="80" x2="140.0" y2="860" stroke="#dde3ea" stroke-dasharray="2 4" stroke-width="0.6"/><line x1="256.0" y1="80" x2="256.0" y2="860" stroke="#dde3ea" stroke-dasharray="2 4" stroke-width="0.6"/><line x1="372.0" y1="80" x2="372.0" y2="860" stroke="#dde3ea" stroke-dasharray="2 4" stroke-width="0.6"/><line x1="488.0" y1="80" x2="488.0" y2="860" stroke="#dde3ea" stroke-dasharray="2 4" stroke-width="0.6"/><line x1="604.0" y1="80" x2="604.0" y2="860" stroke="#dde3ea" stroke-dasharray="2 4" stroke-width="0.6"/><line x1="720.0" y1="80" x2="720.0" y2="860" stroke="#dde3ea" stroke-dasharray="2 4" stroke-width="0.6"/><line x1="836.0" y1="80" x2="836.0" y2="860" stroke="#dde3ea" stroke-dasharray="2 4" stroke-width="0.6"/><line x1="952.0" y1="80" x2="952.0" y2="860" stroke="#dde3ea" stroke-dasharray="2 4" stroke-width="0.6"/><line x1="1068.0" y1="80" x2="1068.0" y2="860" stroke="#dde3ea" stroke-dasharray="2 4" stroke-width="0.6"/><line x1="1184.0" y1="80" x2="1184.0" y2="860" stroke="#dde3ea" stroke-dasharray="2 4" stroke-width="0.6"/><line x1="1300.0" y1="80" x2="1300.0" y2="860" stroke="#dde3ea" stroke-dasharray="2 4" stroke-width="0.6"/><line x1="1416.0" y1="80" x2="1416.0" y2="860" stroke="#dde3ea" stroke-dasharray="2 4" stroke-width="0.6"/></g>
<g id="header">
  <rect x="0" y="0" width="1440" height="64" fill="#13314f"/>
  <text x="24" y="40" class="header-title">Equipment Status Dashboard</text>
  <text x="24" y="56" class="header-meta">Plant: Refinery 2  ·  Line A  ·  Shift B</text>
  <g id="header-clock">
    <rect x="1240" y="14" width="180" height="36" rx="4" fill="#1d4067" stroke="#1d4067"/>
    <text x="1330" y="38" text-anchor="middle" class="header-meta">2026-04-19  14:32:07 MSK</text>
  </g>
</g>
<g id="equipment-card" data-state="ok">
  <rect x="24" y="100" width="330" height="130" rx="6" fill="#ffffff" stroke="#d6dae0"/>
  <rect x="24" y="100" width="6" height="130" fill="#2e7d32"/>
  <text x="42" y="124" class="small">Pump P-101</text>
  <text x="42" y="162" class="num">1480</text>
  <text x="86" y="162" class="small">rpm</text>
  <text x="42" y="186" class="meta">trend: +12</text>
  <g id="state-badge">
    <rect x="42" y="196" width="34" height="20" rx="3" fill="#2e7d32"/>
    <text x="59.0" y="210" text-anchor="middle" class="badge-text">OK</text>
  </g>
</g>
<g id="equipment-card" data-state="ok">
  <rect x="378" y="100" width="330" height="130" rx="6" fill="#ffffff" stroke="#d6dae0"/>
  <rect x="378" y="100" width="6" height="130" fill="#2e7d32"/>
  <text x="396" y="124" class="small">Pump P-102</text>
  <text x="396" y="162" class="num">1492</text>
  <text x="440" y="162" class="small">rpm</text>
  <text x="396" y="186" class="meta">trend: +8</text>
  <g id="state-badge">
    <rect x="396" y="196" width="34" height="20" rx="3" fill="#2e7d32"/>
    <text x="413.0" y="210" text-anchor="middle" class="badge-text">OK</text>
  </g>
</g>
<g id="equipment-card" data-state="ok">
  <rect x="732" y="100" width="330" height="130" rx="6" fill="#ffffff" stroke="#d6dae0"/>
  <rect x="732" y="100" width="6" height="130" fill="#2e7d32"/>
  <text x="750" y="124" class="small">Compressor C-201</text>
  <text x="750" y="162" class="num">3.21</text>
  <text x="794" y="162" class="small">bar</text>
  <text x="750" y="186" class="meta">trend: +0.04</text>
  <g id="state-badge">
    <rect x="750" y="196" width="34" height="20" rx="3" fill="#2e7d32"/>
    <text x="767.0" y="210" text-anchor="middle" class="badge-text">OK</text>
  </g>
</g>
<g id="equipment-card" data-state="alarm">
  <rect x="1086" y="100" width="330" height="130" rx="6" fill="#ffffff" stroke="#d6dae0"/>
  <rect x="1086" y="100" width="6" height="130" fill="#c62828"/>
  <text x="1104" y="124" class="small">Motor M-301</text>
  <text x="1104" y="162" class="num">94.2</text>
  <text x="1148" y="162" class="small">°C</text>
  <text x="1104" y="186" class="meta">trend: +5.1</text>
  <g id="state-badge">
    <rect x="1104" y="196" width="58" height="20" rx="3" fill="#c62828"/>
    <text x="1133.0" y="210" text-anchor="middle" class="badge-text">ALARM</text>
  </g>
</g>
<g id="state-shape" data-state="alarm">
  <rect x="1084" y="98" width="334" height="134" rx="6"
        fill="none" stroke="#c62828" stroke-width="2"/>
</g>
<g id="equipment-card" data-state="alarm">
  <rect x="24" y="250" width="330" height="130" rx="6" fill="#ffffff" stroke="#d6dae0"/>
  <rect x="24" y="250" width="6" height="130" fill="#c62828"/>
  <text x="42" y="274" class="small">Valve V-102</text>
  <text x="42" y="312" class="num">CLOSED</text>
  <text x="108" y="312" class="small"></text>
  <text x="42" y="336" class="meta">trend: —</text>
  <g id="state-badge">
    <rect x="42" y="346" width="58" height="20" rx="3" fill="#c62828"/>
    <text x="71.0" y="360" text-anchor="middle" class="badge-text">ALARM</text>
  </g>
</g>
<g id="state-shape" data-state="alarm">
  <rect x="22" y="248" width="334" height="134" rx="6"
        fill="none" stroke="#c62828" stroke-width="2"/>
</g>
<g id="equipment-card" data-state="warn">
  <rect x="378" y="250" width="330" height="130" rx="6" fill="#ffffff" stroke="#d6dae0"/>
  <rect x="378" y="250" width="6" height="130" fill="#ef6c00"/>
  <text x="396" y="274" class="small">Conveyor CV-401</text>
  <text x="396" y="312" class="num">0.00</text>
  <text x="440" y="312" class="small">m/s</text>
  <text x="396" y="336" class="meta">trend: —</text>
  <g id="state-badge">
    <rect x="396" y="346" width="58" height="20" rx="3" fill="#ef6c00"/>
    <text x="425.0" y="360" text-anchor="middle" class="badge-text">MAINT</text>
  </g>
</g>
<g id="equipment-card" data-state="off">
  <rect x="732" y="250" width="330" height="130" rx="6" fill="#ffffff" stroke="#d6dae0"/>
  <rect x="732" y="250" width="6" height="130" fill="#90a4ae"/>
  <text x="750" y="274" class="small">Mixer MX-501</text>
  <text x="750" y="312" class="num">240</text>
  <text x="783" y="312" class="small">rpm</text>
  <text x="750" y="336" class="meta">trend: —</text>
  <g id="state-badge">
    <rect x="750" y="346" width="50" height="20" rx="3" fill="#90a4ae"/>
    <text x="775.0" y="360" text-anchor="middle" class="badge-text">IDLE</text>
  </g>
</g>
<g id="equipment-card" data-state="warn">
  <rect x="1086" y="250" width="330" height="130" rx="6" fill="#ffffff" stroke="#d6dae0"/>
  <rect x="1086" y="250" width="6" height="130" fill="#ef6c00"/>
  <text x="1104" y="274" class="small">Heater H-201</text>
  <text x="1104" y="312" class="num">62.0</text>
  <text x="1148" y="312" class="small">°C</text>
  <text x="1104" y="336" class="meta">trend: -1.2</text>
  <g id="state-badge">
    <rect x="1104" y="346" width="50" height="20" rx="3" fill="#ef6c00"/>
    <text x="1129.0" y="360" text-anchor="middle" class="badge-text">WARN</text>
  </g>
</g>
<g id="equipment-card" data-state="ok">
  <rect x="24" y="400" width="330" height="130" rx="6" fill="#ffffff" stroke="#d6dae0"/>
  <rect x="24" y="400" width="6" height="130" fill="#2e7d32"/>
  <text x="42" y="424" class="small">Tank T-101</text>
  <text x="42" y="462" class="num">72</text>
  <text x="64" y="462" class="small">%</text>
  <text x="42" y="486" class="meta">trend: +2</text>
  <g id="state-badge">
    <rect x="42" y="496" width="34" height="20" rx="3" fill="#2e7d32"/>
    <text x="59.0" y="510" text-anchor="middle" class="badge-text">OK</text>
  </g>
</g>
<g id="equipment-card" data-state="ok">
  <rect x="378" y="400" width="330" height="130" rx="6" fill="#ffffff" stroke="#d6dae0"/>
  <rect x="378" y="400" width="6" height="130" fill="#2e7d32"/>
  <text x="396" y="424" class="small">Tank T-102</text>
  <text x="396" y="462" class="num">41</text>
  <text x="418" y="462" class="small">%</text>
  <text x="396" y="486" class="meta">trend: -1</text>
  <g id="state-badge">
    <rect x="396" y="496" width="34" height="20" rx="3" fill="#2e7d32"/>
    <text x="413.0" y="510" text-anchor="middle" class="badge-text">OK</text>
  </g>
</g>
<g id="equipment-card" data-state="ok">
  <rect x="732" y="400" width="330" height="130" rx="6" fill="#ffffff" stroke="#d6dae0"/>
  <rect x="732" y="400" width="6" height="130" fill="#2e7d32"/>
  <text x="750" y="424" class="small">Sensor T-405</text>
  <text x="750" y="462" class="num">38.5</text>
  <text x="794" y="462" class="small">°C</text>
  <text x="750" y="486" class="meta">trend: +0.4</text>
  <g id="state-badge">
    <rect x="750" y="496" width="34" height="20" rx="3" fill="#2e7d32"/>
    <text x="767.0" y="510" text-anchor="middle" class="badge-text">OK</text>
  </g>
</g>
<g id="equipment-card" data-state="ok">
  <rect x="1086" y="400" width="330" height="130" rx="6" fill="#ffffff" stroke="#d6dae0"/>
  <rect x="1086" y="400" width="6" height="130" fill="#2e7d32"/>
  <text x="1104" y="424" class="small">Sensor F-902</text>
  <text x="1104" y="462" class="num">180</text>
  <text x="1137" y="462" class="small">m³/h</text>
  <text x="1104" y="486" class="meta">trend: +3</text>
  <g id="state-badge">
    <rect x="1104" y="496" width="34" height="20" rx="3" fill="#2e7d32"/>
    <text x="1121.0" y="510" text-anchor="middle" class="badge-text">OK</text>
  </g>
</g>
<g id="footer-status">
  <rect x="0" y="864" width="1440" height="36" fill="#eaeef3" stroke="#d6dae0"/>
  <text x="24" y="886" class="meta">Connection: OK  ·  Items: 12  ·  Critical: 2  ·  Warning: 2</text>
</g>
</svg>
