<?xml version="1.0" encoding="UTF-8"?>
<svg xmlns="http://www.w3.org/2000/svg" width="1440" height="900"
     viewBox="0 0 1440 900" font-family="Inter, system-ui, sans-serif">
  <title>Batch Recipe Management</title>
  <defs>
    <style>
      .h1 { font-size: 18px; font-weight: 700; fill: #1b2630; }
      .h2 { font-size: 14px; font-weight: 700; fill: #1b2630; }
      .small { font-size: 11px; fill: #5a6675; }
      .meta  { font-size: 10px; fill: #5a6675; }
      .num   { font-size: 26px; font-weight: 700; fill: #1b2630; }
      .cell  { font-size: 12px; fill: #1b2630; }
      .badge-text { font-size: 10px; font-weight: 700; fill: white; }
      .header-title { font-size: 18px; font-weight: 700; fill: #ffffff; }
      .header-meta  { font-size: 11px; fill: #c8d3e2; }
      .button-text  { font-size: 11px; font-weight: 600; fill: #1b2630; }
    </style>
  </defs>
  <rect x="0" y="0" width="1440" height="900" fill="#f3f5f8"/>
<g id="layout-guide" opacity="0.6"><line x1="24.0" y1="80" x2="24.0" y2="860" stroke="#dde3ea" stroke-dasharray="2 4" stroke-width="0.6"/><line x1="140.0" y1="80" x2="140.0" y2="860" stroke="#dde3ea" stroke-dasharray="2 4" stroke-width="0.6"/><line x1="256.0" y1="80" x2="256.0" y2="860" stroke="#dde3ea" stroke-dasharray="2 4" stroke-width="0.6"/><line x1="372.0" y1="80" x2="372.0" y2="860" stroke="#dde3ea" stroke-dasharray="2 4" stroke-width="0.6"/><line x1="488.0" y1="80" x2="488.0" y2="860" stroke="#dde3ea" stroke-dasharray="2 4" stroke-width="0.6"/><line x1="604.0" y1="80" x2="604.0" y2="860" stroke="#dde3ea" stroke-dasharray="2 4" stroke-width="0.6"/><line x1="720.0" y1="80" x2="720.0" y2="860" stroke="#dde3ea" stroke-dasharray="2 4" stroke-width="0.6"/><line x1="836.0" y1="80" x2="836.0" y2="860" stroke="#dde3ea" stroke-dasharray="2 4" stroke-width="0.6"/><line x1="952.0" y1="80" x2="952.0" y2="860" stroke="#dde3ea" stroke-dasharray="2 4" stroke-width="0.6"/><line x1="1068.0" y1="80" x2="1068.0" y2="860" stroke="#dde3ea" stroke-dasharray="2 4" stroke-width="0.6"/><line x1="1184.0" y1="80" x2="1184.0" y2="860" stroke="#dde3ea" stroke-dasharray="2 4" stroke-width="0.6"/><line x1="1300.0" y1="80" x2="1300.0" y2="860" stroke="#dde3ea" stroke-dasharray="2 4" stroke-width="0.6"/><line x1="1416.0" y1="80" x2="1416.0" y2="860" stroke="#dde3ea" stroke-dasharray="2 4" stroke-width="0.6"/></g>
<g id="header">
  <rect x="0" y="0" width="1440" height="64" fill="#13314f"/>
  <text x="24" y="40" class="header-title">Batch Recipe Management</text>
  <text x="24" y="56" class="header-meta">Recipe R-204  ·  Lot 2026-017  ·  Batch operator: A. Petrov</text>
  <g id="header-clock">
    <rect x="1240" y="14" width="180" height="36" rx="4" fill="#1d4067" stroke="#1d4067"/>
    <text x="1330" y="38" text-anchor="middle" class="header-meta">2026-04-19  14:32:07 MSK</text>
  </g>
</g>
<g id="recipe-steps">
  <rect x="24" y="100" width="940" height="660" rx="6" fill="#ffffff" stroke="#d6dae0"/>
</g>
<text x="44" y="128" class="h2">Steps</text>
<g id="step-head">
  <rect x="44" y="148" width="900" height="34" fill="#eaeef3"/>
  <text x="60"  y="170" class="small" font-weight="700">#</text>
  <text x="120" y="170" class="small" font-weight="700">Step</text>
  <text x="500" y="170" class="small" font-weight="700">Duration</text>
  <text x="640" y="170" class="small" font-weight="700">Status</text>
  <text x="820" y="170" class="small" font-weight="700">Action</text>
</g>
<g id="step-row">
  <rect x="44" y="174" width="900" height="44" fill="white"/>
  <line x1="44" y1="218" x2="944" y2="218" stroke="#d6dae0"/>
  <text x="60"  y="204" class="cell">1</text>
  <text x="120" y="204" class="cell" font-weight="600">Pre-heat</text>
  <text x="500" y="204" class="cell" font-family="Consolas,monospace">10 min</text>
  <g id="state-badge">
    <rect x="640" y="188" width="86" height="22" rx="3" fill="#2e7d32"/>
    <text x="683" y="203" text-anchor="middle" class="badge-text">DONE</text>
  </g>
  <g><rect x="820" y="186" width="60" height="26" rx="3" fill="white" stroke="#3a4756"/>
     <text x="850" y="204" text-anchor="middle" class="button-text">View</text></g>
</g>
<g id="step-row">
  <rect x="44" y="238" width="900" height="44" fill="white"/>
  <line x1="44" y1="282" x2="944" y2="282" stroke="#d6dae0"/>
  <text x="60"  y="268" class="cell">2</text>
  <text x="120" y="268" class="cell" font-weight="600">Fill base</text>
  <text x="500" y="268" class="cell" font-family="Consolas,monospace">8 min</text>
  <g id="state-badge">
    <rect x="640" y="252" width="86" height="22" rx="3" fill="#2e7d32"/>
    <text x="683" y="267" text-anchor="middle" class="badge-text">DONE</text>
  </g>
  <g><rect x="820" y="250" width="60" height="26" rx="3" fill="white" stroke="#3a4756"/>
     <text x="850" y="268" text-anchor="middle" class="button-text">View</text></g>
</g>
<g id="step-row">
  <rect x="44" y="302" width="900" height="44" fill="white"/>
  <line x1="44" y1="346" x2="944" y2="346" stroke="#d6dae0"/>
  <text x="60"  y="332" class="cell">3</text>
  <text x="120" y="332" class="cell" font-weight="600">Mix</text>
  <text x="500" y="332" class="cell" font-family="Consolas,monospace">15 min</text>
  <g id="state-badge">
    <rect x="640" y="316" width="86" height="22" rx="3" fill="#1976d2"/>
    <text x="683" y="331" text-anchor="middle" class="badge-text">ACTIVE</text>
  </g>
  <g><rect x="820" y="314" width="60" height="26" rx="3" fill="white" stroke="#3a4756"/>
     <text x="850" y="332" text-anchor="middle" class="button-text">View</text></g>
</g>
<g id="step-row">
  <rect x="44" y="366" width="900" height="44" fill="white"/>
  <line x1="44" y1="410" x2="944" y2="410" stroke="#d6dae0"/>
  <text x="60"  y="396" class="cell">4</text>
  <text x="120" y="396" class="cell" font-weight="600">Add catalyst</text>
  <text x="500" y="396" class="cell" font-family="Consolas,monospace">4 min</text>
  <g id="state-badge">
    <rect x="640" y="380" width="86" height="22" rx="3" fill="#5a6675"/>
    <text x="683" y="395" text-anchor="middle" class="badge-text">PENDING</text>
  </g>
  <g><rect x="820" y="378" width="60" height="26" rx="3" fill="white" stroke="#3a4756"/>
     <text x="850" y="396" text-anchor="middle" class="button-text">View</text></g>
</g>
<g id="step-row">
  <rect x="44" y="430" width="900" height="44" fill="white"/>
  <line x1="44" y1="474" x2="944" y2="474" stroke="#d6dae0"/>
  <text x="60"  y="460" class="cell">5</text>
  <text x="120" y="460" class="cell" font-weight="600">Hold</text>
  <text x="500" y="460" class="cell" font-family="Consolas,monospace">20 min</text>
  <g id="state-badge">
    <rect x="640" y="444" width="86" height="22" rx="3" fill="#5a6675"/>
    <text x="683" y="459" text-anchor="middle" class="badge-text">PENDING</text>
  </g>
  <g><rect x="820" y="442" width="60" height="26" rx="3" fill="white" stroke="#3a4756"/>
     <text x="850" y="460" text-anchor="middle" class="button-text">View</text></g>
</g>
<g id="step-row">
  <rect x="44" y="494" width="900" height="44" fill="white"/>
  <line x1="44" y1="538" x2="944" y2="538" stroke="#d6dae0"/>
  <text x="60"  y="524" class="cell">6</text>
  <text x="120" y="524" class="cell" font-weight="600">Cool down</text>
  <text x="500" y="524" class="cell" font-family="Consolas,monospace">12 min</text>
  <g id="state-badge">
    <rect x="640" y="508" width="86" height="22" rx="3" fill="#5a6675"/>
    <text x="683" y="523" text-anchor="middle" class="badge-text">PENDING</text>
  </g>
  <g><rect x="820" y="506" width="60" height="26" rx="3" fill="white" stroke="#3a4756"/>
     <text x="850" y="524" text-anchor="middle" class="button-text">View</text></g>
</g>
<g id="step-row">
  <rect x="44" y="558" width="900" height="44" fill="white"/>
  <line x1="44" y1="602" x2="944" y2="602" stroke="#d6dae0"/>
  <text x="60"  y="588" class="cell">7</text>
  <text x="120" y="588" class="cell" font-weight="600">Discharge</text>
  <text x="500" y="588" class="cell" font-family="Consolas,monospace">6 min</text>
  <g id="state-badge">
    <rect x="640" y="572" width="86" height="22" rx="3" fill="#5a6675"/>
    <text x="683" y="587" text-anchor="middle" class="badge-text">PENDING</text>
  </g>
  <g><rect x="820" y="570" width="60" height="26" rx="3" fill="white" stroke="#3a4756"/>
     <text x="850" y="588" text-anchor="middle" class="button-text">View</text></g>
</g>
<g id="parameters">
  <rect x="984" y="100" width="432" height="320" rx="6" fill="#ffffff" stroke="#d6dae0"/>
</g>
<text x="1004" y="128" class="h2">Live parameters</text>
<g id="param">
  <rect x="1004" y="160" width="190" height="92" rx="6" fill="white" stroke="#d6dae0"/>
  <text x="1016" y="182" class="small">Temperature</text>
  <text x="1016" y="218" class="num" font-family="Consolas,monospace">65.4 °C</text>
  <rect x="1016" y="228" width="60" height="18" rx="3" fill="#2e7d32"/>
  <text x="1046" y="241" text-anchor="middle" class="badge-text">OK</text>
</g>
<g id="param">
  <rect x="1204" y="160" width="190" height="92" rx="6" fill="white" stroke="#d6dae0"/>
  <text x="1216" y="182" class="small">pH</text>
  <text x="1216" y="218" class="num" font-family="Consolas,monospace">7.1</text>
  <rect x="1216" y="228" width="60" height="18" rx="3" fill="#2e7d32"/>
  <text x="1246" y="241" text-anchor="middle" class="badge-text">OK</text>
</g>
<g id="param">
  <rect x="1004" y="270" width="190" height="92" rx="6" fill="white" stroke="#d6dae0"/>
  <text x="1016" y="292" class="small">RPM</text>
  <text x="1016" y="328" class="num" font-family="Consolas,monospace">240</text>
  <rect x="1016" y="338" width="60" height="18" rx="3" fill="#2e7d32"/>
  <text x="1046" y="351" text-anchor="middle" class="badge-text">OK</text>
</g>
<g id="param">
  <rect x="1204" y="270" width="190" height="92" rx="6" fill="white" stroke="#d6dae0"/>
  <text x="1216" y="292" class="small">Pressure</text>
  <text x="1216" y="328" class="num" font-family="Consolas,monospace">1.18 bar</text>
  <rect x="1216" y="338" width="60" height="18" rx="3" fill="#ef6c00"/>
  <text x="1246" y="351" text-anchor="middle" class="badge-text">WARN</text>
</g>
<g id="timeline">
  <rect x="984" y="440" width="432" height="320" rx="6" fill="#ffffff" stroke="#d6dae0"/>
</g>
<text x="1004" y="468" class="h2">Timeline</text>
<line x1="1004" y1="510" x2="1396" y2="510" stroke="#d6dae0" stroke-width="2"/>
<g id="tl-step">
  <circle cx="1004" cy="510" r="12" fill="#2e7d32"/>
  <text x="1004" y="514" text-anchor="middle" class="badge-text">1</text>
  <text x="1004" y="540" text-anchor="middle" class="meta">10m</text>
</g>
<g id="tl-step">
  <circle cx="1069" cy="510" r="12" fill="#2e7d32"/>
  <text x="1069" y="514" text-anchor="middle" class="badge-text">2</text>
  <text x="1069" y="540" text-anchor="middle" class="meta">8m</text>
</g>
<g id="tl-step">
  <circle cx="1134" cy="510" r="12" fill="#1976d2"/>
  <text x="1134" y="514" text-anchor="middle" class="badge-text">3</text>
  <text x="1134" y="540" text-anchor="middle" class="meta">15m</text>
</g>
<g id="tl-step">
  <circle cx="1199" cy="510" r="12" fill="#5a6675"/>
  <text x="1199" y="514" text-anchor="middle" class="badge-text">4</text>
  <text x="1199" y="540" text-anchor="middle" class="meta">4m</text>
</g>
<g id="tl-step">
  <circle cx="1264" cy="510" r="12" fill="#5a6675"/>
  <text x="1264" y="514" text-anchor="middle" class="badge-text">5</text>
  <text x="1264" y="540" text-anchor="middle" class="meta">20m</text>
</g>
<g id="tl-step">
  <circle cx="1329" cy="510" r="12" fill="#5a6675"/>
  <text x="1329" y="514" text-anchor="middle" class="badge-text">6</text>
  <text x="1329" y="540" text-anchor="middle" class="meta">12m</text>
</g>
<g id="tl-step">
  <circle cx="1394" cy="510" r="12" fill="#5a6675"/>
  <text x="1394" y="514" text-anchor="middle" class="badge-text">7</text>
  <text x="1394" y="540" text-anchor="middle" class="meta">6m</text>
</g>
<g id="batch-actions">
  <g><rect x="1004" y="690" width="120" height="44" rx="4" fill="#2e7d32"/>
     <text x="1064" y="718" text-anchor="middle" fill="white" font-size="14" font-weight="700">RESUME</text></g>
  <g><rect x="1136" y="690" width="120" height="44" rx="4" fill="#ef6c00"/>
     <text x="1196" y="718" text-anchor="middle" fill="white" font-size="14" font-weight="700">HOLD</text></g>
  <g><rect x="1268" y="690" width="128" height="44" rx="4" fill="#c62828"/>
     <text x="1332" y="718" text-anchor="middle" fill="white" font-size="14" font-weight="700">ABORT</text></g>
</g>
<g id="footer-status">
  <rect x="0" y="864" width="1440" height="36" fill="#eaeef3" stroke="#d6dae0"/>
  <text x="24" y="886" class="meta">Recipe R-204  ·  Step 3 of 7 ACTIVE  ·  Compliance: ANSI/ISA-101.01</text>
</g>
</svg>
