<?xml version="1.0" encoding="UTF-8"?>
<svg xmlns="http://www.w3.org/2000/svg" width="1440" height="900"
     viewBox="0 0 1440 900" font-family="Inter, system-ui, sans-serif">
  <title>Alarm &amp; Events</title>
  <defs>
    <style>
      .h1 { font-size: 18px; font-weight: 700; fill: #1b2630; }
      .h2 { font-size: 14px; font-weight: 700; fill: #1b2630; }
      .small { font-size: 11px; fill: #5a6675; }
      .meta  { font-size: 10px; fill: #5a6675; }
      .num   { font-size: 26px; font-weight: 700; fill: #1b2630; }
      .cell  { font-size: 12px; fill: #1b2630; }
      .badge-text { font-size: 10px; font-weight: 700; fill: white; }
      .header-title { font-size: 18px; font-weight: 700; fill: #ffffff; }
      .header-meta  { font-size: 11px; fill: #c8d3e2; }
      .button-text  { font-size: 11px; font-weight: 600; fill: #1b2630; }
    </style>
  </defs>
  <rect x="0" y="0" width="1440" height="900" fill="#f3f5f8"/>
<g id="layout-guide" opacity="0.6"><line x1="24" y1="80" x2="24" y2="860" stroke="#dde3ea" stroke-dasharray="2 4" stroke-width="0.6"/><line x1="140" y1="80" x2="140" y2="860" stroke="#dde3ea" stroke-dasharray="2 4" stroke-width="0.6"/><line x1="256" y1="80" x2="256" y2="860" stroke="#dde3ea" stroke-dasharray="2 4" stroke-width="0.6"/><line x1="372" y1="80" x2="372" y2="860" stroke="#dde3ea" stroke-dasharray="2 4" stroke-width="0.6"/><line x1="488" y1="80" x2="488" y2="860" stroke="#dde3ea" stroke-dasharray="2 4" stroke-width="0.6"/><line x1="604" y1="80" x2="604" y2="860" stroke="#dde3ea" stroke-dasharray="2 4" stroke-width="0.6"/><line x1="720" y1="80" x2="720" y2="860" stroke="#dde3ea" stroke-dasharray="2 4" stroke-width="0.6"/><line x1="836" y1="80" x2="836" y2="860" stroke="#dde3ea" stroke-dasharray="2 4" stroke-width="0.6"/><line x1="952" y1="80" x2="952" y2="860" stroke="#dde3ea" stroke-dasharray="2 4" stroke-width="0.6"/><line x1="1068" y1="80" x2="1068" y2="860" stroke="#dde3ea" stroke-dasharray="2 4" stroke-width="0.6"/><line x1="1184" y1="80" x2="1184" y2="860" stroke="#dde3ea" stroke-dasharray="2 4" stroke-width="0.6"/><line x1="1300" y1="80" x2="1300" y2="860" stroke="#dde3ea" stroke-dasharray="2 4" stroke-width="0.6"/><line x1="1416" y1="80" x2="1416" y2="860" stroke="#dde3ea" stroke-dasharray="2 4" stroke-width="0.6"/></g>
<g id="header">
  <rect x="0" y="0" width="1440" height="64" fill="#13314f"/>
  <text x="24" y="40" class="header-title">Alarm &amp; Events Monitor</text>
  <text x="24" y="56" class="header-meta">Plant: Refinery 2  ·  Shift B  ·  All sites</text>
  <g id="header-clock">
    <rect x="1240" y="14" width="180" height="36" rx="4" fill="#1d4067" stroke="#1d4067"/>
    <text x="1330" y="38" text-anchor="middle" class="header-meta">2026-04-19  14:34:55 MSK</text>
  </g>
</g>
<g id="kpi-card" data-state="alarm">
  <rect x="24" y="88" width="240" height="92" rx="6" fill="#ffffff" stroke="#d6dae0"/>
  <rect x="24" y="88" width="4" height="92" fill="#c62828"/>
  <text x="40" y="110" class="small">Critical</text>
  <text x="40" y="140" class="num">2</text>
  <text x="56" y="140" class="small">active</text>
  <text x="40" y="162" class="meta">▲ +1 за смену</text>
</g>
<g id="kpi-card" data-state="warn">
  <rect x="280" y="88" width="240" height="92" rx="6" fill="#ffffff" stroke="#d6dae0"/>
  <rect x="280" y="88" width="4" height="92" fill="#ef6c00"/>
  <text x="296" y="110" class="small">Warning</text>
  <text x="296" y="140" class="num">5</text>
  <text x="312" y="140" class="small">active</text>
  <text x="296" y="162" class="meta">▼ -1 за смену</text>
</g>
<g id="kpi-card" data-state="ok">
  <rect x="536" y="88" width="240" height="92" rx="6" fill="#ffffff" stroke="#d6dae0"/>
  <rect x="536" y="88" width="4" height="92" fill="#2e7d32"/>
  <text x="552" y="110" class="small">Information</text>
  <text x="552" y="140" class="num">11</text>
  <text x="576" y="140" class="small">recent</text>
  <text x="552" y="162" class="meta">▲ +3 за смену</text>
</g>
<g id="kpi-card" data-state="ok">
  <rect x="792" y="88" width="240" height="92" rx="6" fill="#ffffff" stroke="#d6dae0"/>
  <rect x="792" y="88" width="4" height="92" fill="#2e7d32"/>
  <text x="808" y="110" class="small">Acknowledged</text>
  <text x="808" y="140" class="num">34</text>
  <text x="832" y="140" class="small">last 24h</text>
  <text x="808" y="162" class="meta">▲ +7 за смену</text>
</g>
<g id="kpi-card" data-state="warn">
  <rect x="1048" y="88" width="368" height="92" rx="6" fill="#ffffff" stroke="#d6dae0"/>
  <rect x="1048" y="88" width="4" height="92" fill="#ef6c00"/>
  <text x="1064" y="110" class="small">MTBA</text>
  <text x="1064" y="140" class="num">1h 42m</text>
  <text x="1120" y="140" class="small"></text>
  <text x="1064" y="162" class="meta">▼ -12m за смену</text>
</g>
<g id="filter-bar">
  <rect x="24" y="196" width="1392" height="52" rx="6" fill="#ffffff" stroke="#d6dae0"/>
</g>
<g id="filter-bar-controls">
  <text x="44" y="226" class="small">Severity</text>
  <g id="chip-critical">
    <rect x="106" y="212" width="80" height="24" rx="12" fill="#c62828"/>
    <text x="146" y="228" text-anchor="middle" class="badge-text">CRITICAL</text>
  </g>
  <g id="chip-warning">
    <rect x="194" y="212" width="80" height="24" rx="12" fill="#ef6c00"/>
    <text x="234" y="228" text-anchor="middle" class="badge-text">WARNING</text>
  </g>
  <g id="chip-info">
    <rect x="282" y="212" width="64" height="24" rx="12" fill="#1976d2"/>
    <text x="314" y="228" text-anchor="middle" class="badge-text">INFO</text>
  </g>

  <text x="380" y="226" class="small">Tag / описание</text>
  <g id="search-input">
    <rect x="486" y="208" width="380" height="32" rx="4" fill="white" stroke="#3a4756"/>
    <text x="500" y="228" class="meta">Введите тег или часть описания…</text>
  </g>

  <g id="ack-all-button">
    <rect x="1170" y="208" width="120" height="32" rx="4" fill="#2e7d32"/>
    <text x="1230" y="228" text-anchor="middle" fill="white" font-size="12" font-weight="700">ACK ALL</text>
  </g>
  <g id="export-button">
    <rect x="1300" y="208" width="100" height="32" rx="4" fill="white" stroke="#3a4756"/>
    <text x="1350" y="228" text-anchor="middle" class="button-text">Export…</text>
  </g>
</g>
<g id="alarm-table">
  <rect x="24" y="264" width="1392" height="540" rx="6" fill="#ffffff" stroke="#d6dae0"/>
</g>
<g id="alarm-table-head">
  <rect x="24" y="264" width="1392" height="40" fill="#eaeef3"/>
  <text x="56" y="290" class="small" font-weight="700">Severity</text><text x="152" y="290" class="small" font-weight="700">Time</text><text x="256" y="290" class="small" font-weight="700">Tag</text><text x="360" y="290" class="small" font-weight="700">Description</text><text x="880" y="290" class="small" font-weight="700">Value</text><text x="1000" y="290" class="small" font-weight="700">Source</text><text x="1280" y="290" class="small" font-weight="700">Action</text>
</g>
      <g id="alarm-table-row" data-severity="critical">
        <rect x="24" y="292" width="1392" height="44" fill="white"/>
        <line x1="24" y1="336" x2="1416" y2="336" stroke="#d6dae0"/>
        <g id="status-badge" data-state="critical">
  <rect x="56" y="312" width="78" height="16" rx="3" fill="#c62828"/>
  <text x="95.0" y="324" text-anchor="middle" class="badge-text">CRITICAL</text>
</g>
        <text x="152" y="322" class="cell" font-family="Consolas,monospace">14:31:42</text>
        <text x="256" y="322" class="cell" font-weight="600">TT-301</text>
        <text x="360" y="322" class="cell">Motor temperature exceeds high-high limit</text>
        <text x="880" y="322" class="cell" font-family="Consolas,monospace">94.2 °C</text>
        <text x="1000" y="322" class="meta">Refinery2/U2/M-301</text>
        <g id="row-actions">
          <rect x="1276" y="302" width="58" height="24" rx="3" fill="white" stroke="#3a4756"/>
          <text x="1305" y="318" text-anchor="middle" class="button-text">ACK</text>
          <rect x="1340" y="302" width="58" height="24" rx="3" fill="white" stroke="#3a4756"/>
          <text x="1369" y="318" text-anchor="middle" class="button-text">View</text>
        </g>
      </g>
      <g id="alarm-table-row" data-severity="critical">
        <rect x="24" y="352" width="1392" height="44" fill="#fafbfd"/>
        <line x1="24" y1="396" x2="1416" y2="396" stroke="#d6dae0"/>
        <g id="status-badge" data-state="critical">
  <rect x="56" y="372" width="78" height="16" rx="3" fill="#c62828"/>
  <text x="95.0" y="384" text-anchor="middle" class="badge-text">CRITICAL</text>
</g>
        <text x="152" y="382" class="cell" font-family="Consolas,monospace">14:28:15</text>
        <text x="256" y="382" class="cell" font-weight="600">PT-102</text>
        <text x="360" y="382" class="cell">Discharge pressure too high</text>
        <text x="880" y="382" class="cell" font-family="Consolas,monospace">5.8 bar</text>
        <text x="1000" y="382" class="meta">Refinery2/U1/P-102</text>
        <g id="row-actions">
          <rect x="1276" y="362" width="58" height="24" rx="3" fill="white" stroke="#3a4756"/>
          <text x="1305" y="378" text-anchor="middle" class="button-text">ACK</text>
          <rect x="1340" y="362" width="58" height="24" rx="3" fill="white" stroke="#3a4756"/>
          <text x="1369" y="378" text-anchor="middle" class="button-text">View</text>
        </g>
      </g>
      <g id="alarm-table-row" data-severity="warning">
        <rect x="24" y="412" width="1392" height="44" fill="white"/>
        <line x1="24" y1="456" x2="1416" y2="456" stroke="#d6dae0"/>
        <g id="status-badge" data-state="warning">
  <rect x="56" y="432" width="70" height="16" rx="3" fill="#ef6c00"/>
  <text x="91.0" y="444" text-anchor="middle" class="badge-text">WARNING</text>
</g>
        <text x="152" y="442" class="cell" font-family="Consolas,monospace">14:22:10</text>
        <text x="256" y="442" class="cell" font-weight="600">FT-401</text>
        <text x="360" y="442" class="cell">Flow rate deviation > 12 %</text>
        <text x="880" y="442" class="cell" font-family="Consolas,monospace">23.1 m³/h</text>
        <text x="1000" y="442" class="meta">Refinery2/U4/F-401</text>
        <g id="row-actions">
          <rect x="1276" y="422" width="58" height="24" rx="3" fill="white" stroke="#3a4756"/>
          <text x="1305" y="438" text-anchor="middle" class="button-text">ACK</text>
          <rect x="1340" y="422" width="58" height="24" rx="3" fill="white" stroke="#3a4756"/>
          <text x="1369" y="438" text-anchor="middle" class="button-text">View</text>
        </g>
      </g>
      <g id="alarm-table-row" data-severity="warning">
        <rect x="24" y="472" width="1392" height="44" fill="white"/>
        <line x1="24" y1="516" x2="1416" y2="516" stroke="#d6dae0"/>
        <g id="status-badge" data-state="warning">
  <rect x="56" y="492" width="70" height="16" rx="3" fill="#ef6c00"/>
  <text x="91.0" y="504" text-anchor="middle" class="badge-text">WARNING</text>
</g>
        <text x="152" y="502" class="cell" font-family="Consolas,monospace">14:15:30</text>
        <text x="256" y="502" class="cell" font-weight="600">CT-502</text>
        <text x="360" y="502" class="cell">Cooling water temperature rising</text>
        <text x="880" y="502" class="cell" font-family="Consolas,monospace">38.5 °C</text>
        <text x="1000" y="502" class="meta">Utilities/CW-502</text>
        <g id="row-actions">
          <rect x="1276" y="482" width="58" height="24" rx="3" fill="white" stroke="#3a4756"/>
          <text x="1305" y="498" text-anchor="middle" class="button-text">ACK</text>
          <rect x="1340" y="482" width="58" height="24" rx="3" fill="white" stroke="#3a4756"/>
          <text x="1369" y="498" text-anchor="middle" class="button-text">View</text>
        </g>
      </g>
      <g id="alarm-table-row" data-severity="warning">
        <rect x="24" y="532" width="1392" height="44" fill="#fafbfd"/>
        <line x1="24" y1="576" x2="1416" y2="576" stroke="#d6dae0"/>
        <g id="status-badge" data-state="warning">
  <rect x="56" y="552" width="70" height="16" rx="3" fill="#ef6c00"/>
  <text x="91.0" y="564" text-anchor="middle" class="badge-text">WARNING</text>
</g>
        <text x="152" y="562" class="cell" font-family="Consolas,monospace">14:09:54</text>
        <text x="256" y="562" class="cell" font-weight="600">LT-301</text>
        <text x="360" y="562" class="cell">Tank level above setpoint</text>
        <text x="880" y="562" class="cell" font-family="Consolas,monospace">88.4 %</text>
        <text x="1000" y="562" class="meta">Refinery2/U2/T-301</text>
        <g id="row-actions">
          <rect x="1276" y="542" width="58" height="24" rx="3" fill="white" stroke="#3a4756"/>
          <text x="1305" y="558" text-anchor="middle" class="button-text">ACK</text>
          <rect x="1340" y="542" width="58" height="24" rx="3" fill="white" stroke="#3a4756"/>
          <text x="1369" y="558" text-anchor="middle" class="button-text">View</text>
        </g>
      </g>
      <g id="alarm-table-row" data-severity="info">
        <rect x="24" y="592" width="1392" height="44" fill="white"/>
        <line x1="24" y1="636" x2="1416" y2="636" stroke="#d6dae0"/>
        <g id="status-badge" data-state="info">
  <rect x="56" y="612" width="46" height="16" rx="3" fill="#1976d2"/>
  <text x="79.0" y="624" text-anchor="middle" class="badge-text">INFO</text>
</g>
        <text x="152" y="622" class="cell" font-family="Consolas,monospace">14:05:18</text>
        <text x="256" y="622" class="cell" font-weight="600">PDT-201</text>
        <text x="360" y="622" class="cell">Filter differential pressure</text>
        <text x="880" y="622" class="cell" font-family="Consolas,monospace">0.8 bar</text>
        <text x="1000" y="622" class="meta">Refinery2/U2/F-201</text>
        <g id="row-actions">
          <rect x="1276" y="602" width="58" height="24" rx="3" fill="white" stroke="#3a4756"/>
          <text x="1305" y="618" text-anchor="middle" class="button-text">ACK</text>
          <rect x="1340" y="602" width="58" height="24" rx="3" fill="white" stroke="#3a4756"/>
          <text x="1369" y="618" text-anchor="middle" class="button-text">View</text>
        </g>
      </g>
      <g id="alarm-table-row" data-severity="info">
        <rect x="24" y="652" width="1392" height="44" fill="white"/>
        <line x1="24" y1="696" x2="1416" y2="696" stroke="#d6dae0"/>
        <g id="status-badge" data-state="info">
  <rect x="56" y="672" width="46" height="16" rx="3" fill="#1976d2"/>
  <text x="79.0" y="684" text-anchor="middle" class="badge-text">INFO</text>
</g>
        <text x="152" y="682" class="cell" font-family="Consolas,monospace">14:01:09</text>
        <text x="256" y="682" class="cell" font-weight="600">FT-902</text>
        <text x="360" y="682" class="cell">Flow within tolerance — restored</text>
        <text x="880" y="682" class="cell" font-family="Consolas,monospace">180 m³/h</text>
        <text x="1000" y="682" class="meta">Refinery2/U9/F-902</text>
        <g id="row-actions">
          <rect x="1276" y="662" width="58" height="24" rx="3" fill="white" stroke="#3a4756"/>
          <text x="1305" y="678" text-anchor="middle" class="button-text">ACK</text>
          <rect x="1340" y="662" width="58" height="24" rx="3" fill="white" stroke="#3a4756"/>
          <text x="1369" y="678" text-anchor="middle" class="button-text">View</text>
        </g>
      </g>
      <g id="alarm-table-row" data-severity="info">
        <rect x="24" y="712" width="1392" height="44" fill="#fafbfd"/>
        <line x1="24" y1="756" x2="1416" y2="756" stroke="#d6dae0"/>
        <g id="status-badge" data-state="info">
  <rect x="56" y="732" width="46" height="16" rx="3" fill="#1976d2"/>
  <text x="79.0" y="744" text-anchor="middle" class="badge-text">INFO</text>
</g>
        <text x="152" y="742" class="cell" font-family="Consolas,monospace">13:54:22</text>
        <text x="256" y="742" class="cell" font-weight="600">CT-101</text>
        <text x="360" y="742" class="cell">Communication restored</text>
        <text x="880" y="742" class="cell" font-family="Consolas,monospace">—</text>
        <text x="1000" y="742" class="meta">Bus/CT-101</text>
        <g id="row-actions">
          <rect x="1276" y="722" width="58" height="24" rx="3" fill="white" stroke="#3a4756"/>
          <text x="1305" y="738" text-anchor="middle" class="button-text">ACK</text>
          <rect x="1340" y="722" width="58" height="24" rx="3" fill="white" stroke="#3a4756"/>
          <text x="1369" y="738" text-anchor="middle" class="button-text">View</text>
        </g>
      </g>
<g id="footer-status">
  <rect x="0" y="864" width="1440" height="36" fill="#eaeef3" stroke="#d6dae0"/>
  <text x="24" y="886" class="meta">Connection: OK   ·   Latency: 22 ms   ·   Compliance: ANSI/ISA-101.01-2015 — colour + text + shape encoding for every state</text>
</g>
</svg>
